#!OML:ASF F:\VICON\USERDATA\INSTALL\rory3\rory3.ASF
:FULLY-SPECIFIED
:DEGREES
26
root 0.6923619930935423 17.837727528931115 0.38093806809845 -1.3300971893182676 0.962755331615508 3.5499920305370947
lfemur 8.174469002380096 -2.5583938415043708 -28.306043840316736
ltibia 15.215000586273021
lfoot -16.419811192513855 1.0972006793664935
ltoes -2.6853332886763104
rfemur -26.76122028592082 6.151740886266572 15.34184919144891
rtibia 18.577413698458564
rfoot -7.764377807661881 -16.717592220130243
rtoes -2.706278578631148
lowerback 9.524571174241135 -0.7274871601990075 -5.085667751064465
upperback 0.31389689624970424 -1.5337109769106023 0.6818537859075867
thorax -4.858090808150662 -0.6290861426016506 3.3432136129175056
lowerneck -17.05702267139798 -2.903840003339347 -2.241003815049331
upperneck 20.89266686099672 -3.639393106912274 0.6725932684520177
head 9.447555923736425 -1.7890767959761338 0.13484031358527412
lclavicle -3.64920879564439e-15 -9.843178924233533e-16
lhumerus -23.44931685293888 -5.319660307554869 82.64978485328929
lradius 29.981424396929256
lwrist 7.005812003291554
lhand -27.685477562049726 26.89746614564737
lfingers 7.1250199999999975
lthumb -1.082100212289535 56.87253919173904
rclavicle -3.64920879564439e-15 -9.843178924233533e-16
rhumerus -30.639750957394472 -20.97177622545532 -78.08792943222207
rradius 22.018355275720772
rwrist 7.937067351303864
rhand -17.41587962651507 22.607953307231536
rfingers 7.1250199999999975
rthumb 8.833823654186128 -7.266941809992481
27
root 0.5447883496110403 17.751388121063286 3.0667154986845784 -1.08768542355929 1.596762995007225 3.5878029676186425
lfemur 11.303218551114838 -3.1411363780246857 -27.478604495209023
ltibia 17.028068423756856
lfoot -15.639286831384162 0.3308005988819587
ltoes -5.482403498632498
rfemur -26.042104316514262 6.776821580406022 15.434483838467722
rtibia 16.70784490614112
rfoot -8.518505221931676 -14.633994723399011
rtoes -3.3700944087712466
lowerback 9.496757375951839 -0.9118071797089883 -5.114291388629278
upperback 0.29252201155895075 -1.7653629696564752 0.9334777717119828
thorax -4.823980559610193 -0.7445371027940099 3.7374895605754763
lowerneck -17.165742327979448 -2.874255168352908 -2.2038271621650916
upperneck 20.804394212335932 -3.60307565625873 0.7032405241532673
head 9.440033927628827 -1.768719093331295 0.14867959389299157
lclavicle -3.031504813797237e-15 -5.722964067160188e-16
lhumerus -22.16586245453316 -5.378574804300226 82.75126884327331
lradius 30.505467804497997
lwrist 7.504628328030414
lhand -28.514087640383956 25.746035431299063
lfingers 7.1250199999999975
lthumb -1.882344114530376 55.718065875535096
rclavicle -3.031504813797237e-15 -5.722964067160188e-16
rhumerus -31.261275752914685 -22.592305364542607 -77.18114640667143
rradius 21.19303311748633
rwrist 9.158000398619047
rhand -17.836002408472968 22.25338188369042
rfingers 7.1250199999999975
rthumb 8.428389179045759 -7.574263862007339
28
root 0.40823626070495006 17.692899861376794 4.4961284203339975 -1.2647509274077011 1.9785515097606057 2.9649773098266343
lfemur 12.664391424946508 -3.7063049800889205 -26.087505196276133
ltibia 21.83548831298227
lfoot -13.588923616774101 -1.4586369530212087
ltoes -10.371678630581757
rfemur -26.11089759004319 6.255514893482433 17.08993293905284
rtibia 21.73805997805956
rfoot -7.384274005703667 -10.780034303720832
rtoes -1.8759181817251656
lowerback 9.58315653725596 -0.9871166931134608 -4.595466361322228
upperback 0.3157552464875406 -1.7957516283813 1.280169112095265
thorax -4.847668716585278 -0.766252428653862 3.86054315514881
lowerneck -17.352591695236157 -2.833778228384367 -2.114919145576393
upperneck 20.873634213128717 -3.538355081683625 0.5666267199608682
head 9.499398419895371 -1.7443125630799248 0.10987786401654813
lclavicle -2.7215248665371795e-15 -3.6552757769748323e-16
lhumerus -22.03893914465947 -4.594682242415315 83.00397278106865
lradius 30.67138578479232
lwrist 7.785826091201806
lhand -29.15874736892523 24.756340117186888
lfingers 7.1250199999999975
lthumb -2.504933243112807 54.718839296960134
rclavicle -2.7215248665371795e-15 -3.6552757769748323e-16
rhumerus -31.979011756296348 -24.338799716550707 -75.95209109100543
rradius 20.153697366363453
rwrist 10.916698979297912
rhand -17.893673358217356 22.048977759360422
rfingers 7.1250199999999975
rthumb 8.372704050032212 -7.804194809031927
29
root 0.2814779012804427 17.70593453285755 4.730045504202212 -1.715346760595677 1.8770534295756711 1.5293565055886975
lfemur 11.927741201625196 -3.9701117502050813 -24.156295063512747
ltibia 28.79018512658488
lfoot -8.251513337620393 -5.050369733518981
ltoes -15.076534753079372
rfemur -26.304823927106 5.520819536633832 19.59434041869457
rtibia 28.01780793128145
rfoot -6.272819077803948 -6.999615225169437
rtoes 1.7237130376462682
lowerback 9.704154855349834 -1.1319962106149513 -3.610962120377792
upperback 0.3029865437856049 -1.843893416007106 1.7506828561347563
thorax -4.949886809812258 -0.8052977211928812 3.7993577095122073
lowerneck -17.34889103080744 -2.7296645093888063 -2.0240135687766676
upperneck 21.092795635163935 -3.365011142060716 0.25174903503407653
head 9.572950564798434 -1.687638780894346 0.041386483627215254
lclavicle -2.887062373577781e-15 -4.759279337553195e-16
lhumerus -22.899304972439857 -3.790430183720142 83.4300570751822
lradius 30.996668216078074
lwrist 7.601825763218794
lhand -29.541920182615442 23.971773183725197
lfingers 7.1250199999999975
lthumb -2.8749828794763834 53.92454777628357
rclavicle -2.887062373577781e-15 -4.759279337553195e-16
rhumerus -32.74655563408617 -26.06311913478199 -74.80153766775308
rradius 19.286146523172278
rwrist 12.447513951427858
rhand -17.734383554076558 22.015123721066534
rfingers 7.1250199999999975
rthumb 8.526417160561477 -7.902590978689216
